REM DIRINDEX 1\2,1\3,1\4,1\5,1\6
REM DIRNAME folder01,folder02,folder03,folder04,folder05,folder06
TITLE ""
FILE "DISC1Track18.mp3" MP3
  TRACK 01 AUDIO
    TITLE "0:"
    INDEX 01 00:00:00
  TRACK 02 AUDIO
    TITLE "3:cjc129_0498"
    INDEX 01 00:00:05
  TRACK 03 AUDIO
    TITLE "0:"
    INDEX 01 00:01:22
  TRACK 04 AUDIO
    TITLE "5:cjc129_0499"
    INDEX 01 00:01:54
  TRACK 05 AUDIO
    TITLE "0:"
    INDEX 01 00:04:74
  TRACK 06 AUDIO
    TITLE "4:cjc129_0500"
    INDEX 01 00:05:63
  TRACK 07 AUDIO
    TITLE "0:"
    INDEX 01 00:07:05
  TRACK 08 AUDIO
    TITLE "6:cjc129_0501"
    INDEX 01 00:07:37
  TRACK 09 AUDIO
    TITLE "0:"
    INDEX 01 00:11:48
  TRACK 10 AUDIO
    TITLE "3:cjc129_0502"
    INDEX 01 00:13:24
  TRACK 11 AUDIO
    TITLE "0:"
    INDEX 01 00:14:39
  TRACK 12 AUDIO
    TITLE "5:cjc129_0503"
    INDEX 01 00:14:70
  TRACK 13 AUDIO
    TITLE "0:"
    INDEX 01 00:17:53
  TRACK 14 AUDIO
    TITLE "4:cjc129_0504"
    INDEX 01 00:18:42
  TRACK 15 AUDIO
    TITLE "0:"
    INDEX 01 00:19:56
  TRACK 16 AUDIO
    TITLE "6:cjc129_0505"
    INDEX 01 00:20:12
  TRACK 17 AUDIO
    TITLE "0:"
    INDEX 01 00:24:61
  TRACK 18 AUDIO
    TITLE "3:cjc129_0506"
    INDEX 01 00:26:36
  TRACK 19 AUDIO
    TITLE "0:"
    INDEX 01 00:27:53
  TRACK 20 AUDIO
    TITLE "5:cjc129_0507"
    INDEX 01 00:28:10
  TRACK 21 AUDIO
    TITLE "0:"
    INDEX 01 00:29:58
  TRACK 22 AUDIO
    TITLE "4:cjc129_0508"
    INDEX 01 00:30:48
  TRACK 23 AUDIO
    TITLE "0:"
    INDEX 01 00:31:65
  TRACK 24 AUDIO
    TITLE "6:cjc129_0509"
    INDEX 01 00:32:19
  TRACK 25 AUDIO
    TITLE "0:"
    INDEX 01 00:37:40
  TRACK 26 AUDIO
    TITLE "3:cjc129_0510"
    INDEX 01 00:39:13
  TRACK 27 AUDIO
    TITLE "0:"
    INDEX 01 00:40:32
  TRACK 28 AUDIO
    TITLE "5:cjc129_0511"
    INDEX 01 00:40:66
  TRACK 29 AUDIO
    TITLE "0:"
    INDEX 01 00:42:02
  TRACK 30 AUDIO
    TITLE "4:cjc129_0512"
    INDEX 01 00:42:66
  TRACK 31 AUDIO
    TITLE "0:"
    INDEX 01 00:44:09
  TRACK 32 AUDIO
    TITLE "6:cjc129_0513"
    INDEX 01 00:44:42
  TRACK 33 AUDIO
    TITLE "0:"
    INDEX 01 00:48:40
  TRACK 34 AUDIO
    TITLE "3:cjc129_0514"
    INDEX 01 00:50:15
  TRACK 35 AUDIO
    TITLE "0:"
    INDEX 01 00:51:24
  TRACK 36 AUDIO
    TITLE "5:cjc129_0515"
    INDEX 01 00:52:69
  TRACK 37 AUDIO
    TITLE "0:"
    INDEX 01 00:54:07
  TRACK 38 AUDIO
    TITLE "4:cjc129_0516"
    INDEX 01 00:54:72
  TRACK 39 AUDIO
    TITLE "0:"
    INDEX 01 00:56:06
  TRACK 40 AUDIO
    TITLE "6:cjc129_0517"
    INDEX 01 00:56:37
  TRACK 41 AUDIO
    TITLE "0:"
    INDEX 01 01:00:51
  TRACK 42 AUDIO
    TITLE "3:cjc129_0518"
    INDEX 01 01:02:24
  TRACK 43 AUDIO
    TITLE "0:"
    INDEX 01 01:03:33
  TRACK 44 AUDIO
    TITLE "5:cjc129_0519"
    INDEX 01 01:04:64
  TRACK 45 AUDIO
    TITLE "0:"
    INDEX 01 01:07:10
  TRACK 46 AUDIO
    TITLE "4:cjc129_0520"
    INDEX 01 01:08:01
  TRACK 47 AUDIO
    TITLE "0:"
    INDEX 01 01:09:10
  TRACK 48 AUDIO
    TITLE "6:cjc129_0521"
    INDEX 01 01:09:44
  TRACK 49 AUDIO
    TITLE "0:"
    INDEX 01 01:14:10
  TRACK 50 AUDIO
    TITLE "3:cjc129_0522"
    INDEX 01 01:15:62
  TRACK 51 AUDIO
    TITLE "0:"
    INDEX 01 01:16:71
  TRACK 52 AUDIO
    TITLE "5:cjc129_0523"
    INDEX 01 01:18:39
  TRACK 53 AUDIO
    TITLE "0:"
    INDEX 01 01:20:73
  TRACK 54 AUDIO
    TITLE "4:cjc129_0524"
    INDEX 01 01:21:63
  TRACK 55 AUDIO
    TITLE "0:"
    INDEX 01 01:22:72
  TRACK 56 AUDIO
    TITLE "6:cjc129_0525"
    INDEX 01 01:23:28
  TRACK 57 AUDIO
    TITLE "0:"
    INDEX 01 01:28:67
  TRACK 58 AUDIO
    TITLE "3:cjc129_0526"
    INDEX 01 01:30:44
  TRACK 59 AUDIO
    TITLE "0:"
    INDEX 01 01:31:63
  TRACK 60 AUDIO
    TITLE "5:cjc129_0527"
    INDEX 01 01:32:17
  TRACK 61 AUDIO
    TITLE "0:"
    INDEX 01 01:33:29
  TRACK 62 AUDIO
    TITLE "4:cjc129_0528"
    INDEX 01 01:34:20
  TRACK 63 AUDIO
    TITLE "0:"
    INDEX 01 01:35:39
  TRACK 64 AUDIO
    TITLE "6:cjc129_0529"
    INDEX 01 01:35:71
  TRACK 65 AUDIO
    TITLE "0:"
    INDEX 01 01:39:74
